<svg xmlns="http://www.w3.org/2000/svg" viewBox="0 0 308 405"><path fill="#cf0" d="m12 0 1 1c32 10 64 23 95 37 44 22 88 49 122 85 23 24 42 52 50 85 7 30 2 62-9 90-7 19-17 37-29 53 11 13 23 27 39 36l25 10c5 3 1 10-3 8l-16-6c-20-8-36-24-50-41-1 1-2 3-2 1-45 6-92 6-134-14-15-8-29-18-41-30-22-23-37-52-46-82C2 192-1 148 0 105A656 656 0 0 1 12 0z"/><path fill="#71d400" d="M13 1A656 656 0 0 0 0 105c-1 43 2 87 14 128 9 30 24 59 46 82 12 12 26 22 41 30 42 20 89 20 134 14 0 2 1 0 2-1-12-13-23-28-34-43-2-4-6-6-10-9a93 93 0 0 0-49-21c-9-1-18 1-26 5-2 1-4-2-2-3 11-5 23-6 34-5 16 3 31 11 44 20l-31-47-7-6c-18-14-42-23-64-16l-8 3c-2 1-3-2-1-3 12-6 27-7 41-4 11 3 22 9 31 15l-29-48c-3-4-8-7-12-10-19-13-45-20-67-9-2 1-4-2-2-3 13-6 27-7 41-4 12 2 23 8 33 15l-24-39c-10-9-21-16-34-20-15-5-31-5-45 1-2 2-3-1-2-2 11-5 22-7 33-6 16 2 30 9 43 18L40 52c-1-2-1-5 1-7L13 1z"/><path fill="#443900" d="M47 47c-1-3-4-3-6-2-2 2-2 5-1 7l50 85c-13-9-27-16-43-18-11-1-22 1-33 6-1 1 0 4 2 2 14-6 30-6 45-1 13 4 24 11 34 20l24 39c-10-7-21-13-33-15-14-3-28-2-41 4-2 1 0 4 2 3 22-11 48-4 67 9 4 3 9 6 12 10l29 48c-9-6-20-12-31-15-14-3-29-2-41 4-2 1-1 4 1 3l8-3c22-7 46 2 64 16l7 6 31 47c-13-9-28-17-44-20-11-1-23 0-34 5-2 1 0 4 2 3 8-4 17-6 26-5 18 1 35 10 49 21 4 3 8 5 10 9 11 15 22 30 34 43 14 17 30 33 50 41l16 6c4 2 8-5 3-8l-25-10c-16-9-28-23-39-36-13-15-24-30-35-46-4-11-5-24-4-36 2-14 9-28 20-36 2-1 2-3 1-4-2-1-4 2-5 3a61 61 0 0 0-20 47l2 19-33-50c-3-9-4-19-3-28 0-18 7-36 21-47 2-1 1-5-1-3-21 16-27 45-22 70l-29-46c-6-8-6-17-7-26-1-20 5-42 22-55 2-1 1-4-2-3-8 7-15 16-18 26-6 14-6 29-4 43l-25-41c-2-2-2-6-2-8-4-24 0-50 20-66 2-1 1-5-1-3-10 7-17 17-20 28-4 13-4 26-3 38L47 47z"/></svg>